<svg width="16" height="16" viewBox="0 0 16 16" fill="none" xmlns="http://www.w3.org/2000/svg">
<g clip-path="url(#clip0_22981_57)">
<rect width="16" height="16" fill="white" fill-opacity="0.01"/>
<g clip-path="url(#clip1_22981_57)">
<path d="M10.5588 2.98763L9.85757 3.68887C9.68774 3.8587 9.69053 4.13493 9.86375 4.30129L12.7478 7.07102H0.428762C0.191978 7.07102 0 7.263 0 7.49979V8.50023C0 8.73702 0.191978 8.92899 0.428762 8.92899H12.7478L9.86379 11.6987C9.69053 11.8651 9.68774 12.1413 9.8576 12.3111L10.5588 13.0124C10.7263 13.1798 10.9978 13.1798 11.1652 13.0124L15.8744 8.30318C16.0419 8.13575 16.0419 7.86427 15.8744 7.6968L11.1652 2.98763C10.9977 2.8202 10.7262 2.8202 10.5588 2.98763Z" fill="white"/>
</g>
</g>
<defs>
<clipPath id="clip0_22981_57">
<rect width="16" height="16" fill="white"/>
</clipPath>
<clipPath id="clip1_22981_57">
<rect width="16" height="16" fill="white"/>
</clipPath>
</defs>
</svg>
