<svg width="176" height="50" viewBox="0 0 176 50" fill="none" xmlns="http://www.w3.org/2000/svg">
<path d="M3.03409 42V7.09091H10.4148V22.483H10.875L23.4375 7.09091H32.2841L19.3295 22.7216L32.4375 42H23.608L14.0455 27.6477L10.4148 32.0795V42H3.03409ZM43.2528 26.8636V42H35.9915V7.09091H43.0483V20.4375H43.3551C43.946 18.892 44.9006 17.6818 46.2188 16.8068C47.5369 15.9205 49.1903 15.4773 51.179 15.4773C52.9972 15.4773 54.5824 15.875 55.9347 16.6705C57.2983 17.4545 58.3551 18.5852 59.1051 20.0625C59.8665 21.5284 60.2415 23.2841 60.2301 25.3295V42H52.9688V26.625C52.9801 25.0114 52.571 23.7557 51.7415 22.858C50.9233 21.9602 49.7756 21.5114 48.2983 21.5114C47.3097 21.5114 46.4347 21.7216 45.6733 22.142C44.9233 22.5625 44.3324 23.1761 43.9006 23.983C43.4801 24.7784 43.2642 25.7386 43.2528 26.8636ZM73.4105 42.4943C71.7401 42.4943 70.2514 42.2045 68.9446 41.625C67.6378 41.0341 66.6037 40.1648 65.8423 39.017C65.0923 37.858 64.7173 36.4148 64.7173 34.6875C64.7173 33.233 64.9844 32.0114 65.5185 31.0227C66.0526 30.0341 66.7798 29.2386 67.7003 28.6364C68.6207 28.0341 69.6662 27.5795 70.8366 27.2727C72.0185 26.9659 73.2571 26.75 74.5526 26.625C76.0753 26.4659 77.3026 26.3182 78.2344 26.1818C79.1662 26.0341 79.8423 25.8182 80.2628 25.5341C80.6832 25.25 80.8935 24.8295 80.8935 24.2727V24.1705C80.8935 23.0909 80.5526 22.2557 79.8707 21.6648C79.2003 21.0739 78.2457 20.7784 77.0071 20.7784C75.7003 20.7784 74.6605 21.0682 73.8878 21.6477C73.1151 22.2159 72.6037 22.9318 72.3537 23.7955L65.6378 23.25C65.9787 21.6591 66.6491 20.2841 67.6491 19.125C68.6491 17.9545 69.9389 17.0568 71.5185 16.4318C73.1094 15.7955 74.9503 15.4773 77.0412 15.4773C78.4957 15.4773 79.8878 15.6477 81.2173 15.9886C82.5582 16.3295 83.7457 16.858 84.7798 17.5739C85.8253 18.2898 86.6491 19.2102 87.2514 20.3352C87.8537 21.4489 88.1548 22.7841 88.1548 24.3409V42H81.2685V38.3693H81.0639C80.6435 39.1875 80.081 39.9091 79.3764 40.5341C78.6719 41.1477 77.8253 41.6307 76.8366 41.983C75.848 42.3239 74.706 42.4943 73.4105 42.4943ZM75.4901 37.483C76.5582 37.483 77.5014 37.2727 78.3196 36.8523C79.1378 36.4205 79.7798 35.8409 80.2457 35.1136C80.7116 34.3864 80.9446 33.5625 80.9446 32.642V29.8636C80.7173 30.0114 80.4048 30.1477 80.0071 30.2727C79.6207 30.3864 79.1832 30.4943 78.6946 30.5966C78.206 30.6875 77.7173 30.7727 77.2287 30.8523C76.7401 30.9205 76.2969 30.983 75.8991 31.0398C75.0469 31.1648 74.3026 31.3636 73.6662 31.6364C73.0298 31.9091 72.5355 32.2784 72.1832 32.7443C71.831 33.1989 71.6548 33.767 71.6548 34.4489C71.6548 35.4375 72.0128 36.1932 72.7287 36.7159C73.456 37.2273 74.3764 37.483 75.4901 37.483ZM93.9247 42V7.09091H101.186V20.2159H101.408C101.726 19.5114 102.186 18.7955 102.788 18.0682C103.402 17.3295 104.197 16.7159 105.175 16.2273C106.163 15.7273 107.391 15.4773 108.857 15.4773C110.766 15.4773 112.527 15.9773 114.141 16.9773C115.754 17.9659 117.044 19.4602 118.01 21.4602C118.976 23.4489 119.459 25.9432 119.459 28.9432C119.459 31.8636 118.987 34.3295 118.044 36.3409C117.112 38.3409 115.839 39.858 114.226 40.892C112.624 41.9148 110.828 42.4261 108.839 42.4261C107.43 42.4261 106.232 42.1932 105.243 41.7273C104.266 41.2614 103.464 40.6761 102.839 39.9716C102.214 39.2557 101.737 38.5341 101.408 37.8068H101.084V42H93.9247ZM101.033 28.9091C101.033 30.4659 101.249 31.8239 101.68 32.983C102.112 34.142 102.737 35.0455 103.555 35.6932C104.374 36.3295 105.368 36.6477 106.538 36.6477C107.72 36.6477 108.72 36.3239 109.538 35.6761C110.357 35.017 110.976 34.108 111.396 32.9489C111.828 31.7784 112.044 30.4318 112.044 28.9091C112.044 27.3977 111.834 26.0682 111.413 24.9205C110.993 23.7727 110.374 22.875 109.555 22.2273C108.737 21.5795 107.732 21.2557 106.538 21.2557C105.357 21.2557 104.357 21.5682 103.538 22.1932C102.732 22.8182 102.112 23.7045 101.68 24.8523C101.249 26 101.033 27.3523 101.033 28.9091Z" fill="#2D5BD0"/>
<path d="M158.898 42V15.8182H165.938V20.3864H166.21C166.688 18.7614 167.489 17.5341 168.614 16.7045C169.739 15.8636 171.034 15.4432 172.5 15.4432C172.864 15.4432 173.256 15.4659 173.676 15.5114C174.097 15.5568 174.466 15.6193 174.784 15.6989V22.142C174.443 22.0398 173.972 21.9489 173.369 21.8693C172.767 21.7898 172.216 21.75 171.716 21.75C170.648 21.75 169.693 21.983 168.852 22.4489C168.023 22.9034 167.364 23.5398 166.875 24.358C166.398 25.1761 166.159 26.1193 166.159 27.1875V42H158.898Z" fill="#2D5BD0"/>
<path fill-rule="evenodd" clip-rule="evenodd" d="M146.767 21.4567C144.023 21.4567 141.783 19.2333 141.783 16.49V13.0867L150.587 21.4567H146.767ZM141.48 34.1533H132.482C131.792 34.1533 131.232 33.5933 131.232 32.9033C131.232 32.2133 131.792 31.6533 132.482 31.6533H141.48C142.172 31.6533 142.73 32.2133 142.73 32.9033C142.73 33.5933 142.172 34.1533 141.48 34.1533ZM132.478 24.9683H138.072C138.762 24.9683 139.322 25.5283 139.322 26.2183C139.322 26.91 138.762 27.4683 138.072 27.4683H132.478C131.788 27.4683 131.228 26.91 131.228 26.2183C131.228 25.5283 131.788 24.9683 132.478 24.9683ZM152.925 21.75C152.925 21.6833 152.925 21.6333 152.908 21.5667C152.858 21.2667 152.808 20.9667 152.758 20.6833C152.725 20.5 152.642 20.35 152.508 20.2167L143.058 11.2167C142.942 11.1 142.775 11.0167 142.608 11C142.325 10.9667 142.025 10.9333 141.725 10.9C141.675 10.8833 141.608 10.8833 141.558 10.8833C140.592 10.8 139.525 10.75 138.408 10.75C127.475 10.75 123.592 15 123.592 27C123.592 38.9833 127.475 43.25 138.408 43.25C149.358 43.25 153.242 38.9833 153.242 27C153.242 25 153.142 23.2667 152.925 21.75Z" fill="#2D5BD0"/>
</svg>
